<?xml version="1.0" encoding="UTF-8" standalone="no"?>
<!-- Created with Inkscape (http://www.inkscape.org/) -->

<svg
   xmlns:dc="http://purl.org/dc/elements/1.1/"
   xmlns:cc="http://creativecommons.org/ns#"
   xmlns:rdf="http://www.w3.org/1999/02/22-rdf-syntax-ns#"
   xmlns:svg="http://www.w3.org/2000/svg"
   xmlns="http://www.w3.org/2000/svg"
   xmlns:sodipodi="http://sodipodi.sourceforge.net/DTD/sodipodi-0.dtd"
   xmlns:inkscape="http://www.inkscape.org/namespaces/inkscape"
   width="97.156525mm"
   height="16.933332mm"
   viewBox="0 0 344.2554 59.999997"
   id="svg2"
   version="1.1"
   inkscape:version="0.91 r13725"
   sodipodi:docname="gdgfoumban.svg">
  <defs
     id="defs4">
    <linearGradient
       id="a"
       gradientUnits="userSpaceOnUse"
       x1="2465.9131"
       y1="241.468"
       x2="2481.4009"
       y2="231.78999"
       gradientTransform="matrix(1,0,0,-1,-2219.2276,980.76207)">
      <stop
         offset=".54"
         stop-color="#0A985C"
         id="stop3349" />
      <stop
         offset=".54"
         stop-color="#F6C25B"
         id="stop3351" />
    </linearGradient>
    <linearGradient
       id="b"
       gradientUnits="userSpaceOnUse"
       x1="2470.3821"
       y1="259.66"
       x2="2486.2649"
       y2="269.58499"
       gradientTransform="matrix(1,0,0,-1,-2219.2276,980.76207)">
      <stop
         offset=".57"
         stop-color="#5586C5"
         id="stop3364" />
      <stop
         offset=".57"
         stop-color="#D9423E"
         id="stop3366" />
    </linearGradient>
  </defs>
  <sodipodi:namedview
     id="base"
     pagecolor="#ffffff"
     bordercolor="#666666"
     borderopacity="1.0"
     inkscape:pageopacity="0.0"
     inkscape:pageshadow="2"
     inkscape:zoom="0.35"
     inkscape:cx="255.96019"
     inkscape:cy="121.42867"
     inkscape:document-units="px"
     inkscape:current-layer="layer1"
     showgrid="false"
     inkscape:window-width="1366"
     inkscape:window-height="716"
     inkscape:window-x="-8"
     inkscape:window-y="-8"
     inkscape:window-maximized="1"
     inkscape:snap-grids="true"
     inkscape:snap-others="true"
     inkscape:snap-nodes="true"
     inkscape:snap-global="true"
     fit-margin-top="0"
     fit-margin-left="0"
     fit-margin-right="0"
     fit-margin-bottom="0">
    <sodipodi:guide
       position="-204.7541,-484.28562"
       orientation="0,744.09449"
       id="guide3460" />
    <sodipodi:guide
       position="539.34038,-484.28562"
       orientation="-1052.3622,0"
       id="guide3462" />
    <sodipodi:guide
       position="539.34038,568.07657"
       orientation="0,-744.09449"
       id="guide3464" />
    <sodipodi:guide
       position="-204.7541,568.07657"
       orientation="1052.3622,0"
       id="guide3466" />
    <sodipodi:guide
       position="-204.7541,-484.28562"
       orientation="0,744.09449"
       id="guide3468" />
    <sodipodi:guide
       position="539.34038,-484.28562"
       orientation="-1052.3622,0"
       id="guide3470" />
    <sodipodi:guide
       position="539.34038,568.07657"
       orientation="0,-744.09449"
       id="guide3472" />
    <sodipodi:guide
       position="-204.7541,568.07657"
       orientation="1052.3622,0"
       id="guide3474" />
  </sodipodi:namedview>
  <metadata
     id="metadata7">
    <rdf:RDF>
      <cc:Work
         rdf:about="">
        <dc:format>image/svg+xml</dc:format>
        <dc:type
           rdf:resource="http://purl.org/dc/dcmitype/StillImage" />
        <dc:title></dc:title>
      </cc:Work>
    </rdf:RDF>
  </metadata>
  <g
     inkscape:label="Layer 1"
     inkscape:groupmode="layer"
     id="layer1"
     transform="translate(-204.7541,-508.07659)">
    <g
       id="g3338"
       transform="translate(-29.194707,-190.96165)">
      <g
         id="g3442"
         transform="translate(-5.7142857,2.8571429)">
        <g
           transform="translate(-997.33261,-3167.8869)"
           id="g3342"
           style="fill:none">
          <path
             id="path3344"
             d="m 1249.415,3902.277 -12.117,19.772 c -0.681,1.11 -0.172,2.019 1.131,2.019 l 14.209,0 c 1.302,0 2.929,-0.906 3.615,-2.013 l 6.416,-10.365 -13.254,-9.413 z"
             inkscape:connector-curvature="0" />
          <path
             id="path3346"
             d="m 1267.028,3883.49 -10.774,-17.406 c -0.686,-1.107 -2.312,-2.014 -3.615,-2.014 l -14.21,0 c -1.303,0 -1.811,0.909 -1.13,2.019 l 13.796,22.511 7.755,-10.919 8.178,5.809 z"
             inkscape:connector-curvature="0" />
        </g>
        <path
           id="path3353"
           d="m 264.59539,739.49807 c -1.179,-1.983 -4.039,-7.077 -6.177,-10.872 l -2.412,-4.248 c 0.555,1.118 0.515,2.779 -0.122,3.819 l -15.911,25.963 c -0.68,1.109 -0.172,2.02 1.132,2.02 l 14.207,0 c 1.303,0 2.93,-0.907 3.615,-2.014 l 6.427,-10.378 c -0.137,0.188 0.759,-1.74 -0.759,-4.29 z"
           inkscape:connector-curvature="0"
           style="fill:url(#a)" />
        <g
           transform="translate(-997.33261,-3167.8869)"
           id="g3355">
          <path
             id="path3357"
             d="m 1249.422,3902.275 -12.116,19.773 c -0.68,1.109 -0.171,2.02 1.132,2.02 l 14.208,0 c 1.303,0 2.929,-0.907 3.615,-2.014 l 6.419,-10.366 -13.258,-9.413 z"
             inkscape:connector-curvature="0"
             style="fill:none" />
          <path
             id="path3359"
             d="m 1267.036,3883.487 -10.776,-17.406 c -0.683,-1.108 -2.311,-2.013 -3.613,-2.013 l -14.209,0 c -1.304,0 -1.812,0.909 -1.132,2.02 l 13.797,22.513 7.757,-10.921 8.176,5.807 z"
             inkscape:connector-curvature="0"
             style="fill:none" />
          <path
             id="path3361"
             d="m 1272.339,3896.083 c 0.688,-1.108 0.688,-2.922 0,-4.03 l -5.304,-8.567 -8.177,-5.808 -7.757,10.921 2.114,3.448 c 0.681,1.11 0.681,2.928 0,4.038 l -3.795,6.19 13.257,9.413 9.66,-15.605 z"
             inkscape:connector-curvature="0"
             style="opacity:0.08999999;fill:#010101;enable-background:new" />
        </g>
        <text
           sodipodi:linespacing="125%"
           id="text3405"
           y="537.60956"
           x="466.33755"
           style="font-style:normal;font-weight:normal;font-size:40px;line-height:125%;font-family:sans-serif;letter-spacing:0px;word-spacing:0px;fill:#000000;fill-opacity:1;stroke:none;stroke-width:1px;stroke-linecap:butt;stroke-linejoin:miter;stroke-opacity:1"
           xml:space="preserve"><tspan
             y="537.60956"
             x="466.33755"
             id="tspan3407"
             sodipodi:role="line" /></text>
        <g
           id="g3435">
          <path
             style="fill:url(#b)"
             inkscape:connector-curvature="0"
             d="m 275.00339,724.17107 -16.076,-25.973 c -0.685,-1.108 -2.313,-2.014 -3.615,-2.014 l -14.212,0 c -1.302,0 -1.81,0.908 -1.13,2.02 l 15.911,25.961 2.536,4.462 c 2.138,3.794 4.998,8.888 6.177,10.872 1.775,2.985 0.247,5.115 0.935,4.006 l 9.474,-15.304 c 0.686,-1.109 0.686,-2.92 0,-4.03 z m -19.103,0.024 0.057,0.094 0,0.01 -0.061,-0.101 z m 1.134,1.979 0.168,0.296 -0.168,-0.296 z m -0.014,-0.036 0.271,0.479 -0.271,-0.479 z"
             id="path3368" />
          <g
             style="fill:#4e4e4e;enable-background:new"
             id="g3370"
             transform="translate(-997.33261,-3167.8869)">
            <path
               inkscape:connector-curvature="0"
               d="m 1306.167,3890.121 14.065,0 0,17.564 c -3.819,1.308 -8.017,1.961 -12.594,1.961 -5.023,0 -8.905,-1.456 -11.646,-4.368 -2.741,-2.912 -4.112,-7.066 -4.112,-12.46 0,-5.261 1.5,-9.354 4.502,-12.282 3.001,-2.927 7.207,-4.391 12.616,-4.391 2.051,0 3.986,0.193 5.807,0.58 1.821,0.387 3.407,0.877 4.759,1.471 l -2.786,6.91 c -2.348,-1.159 -4.926,-1.739 -7.734,-1.739 -2.571,0 -4.559,0.836 -5.963,2.508 -1.404,1.671 -2.106,4.061 -2.106,7.166 0,3.047 0.635,5.368 1.906,6.966 1.271,1.598 3.102,2.396 5.494,2.396 1.308,0 2.511,-0.126 3.611,-0.379 l 0,-5.104 -5.817,0 0,-6.799 z m 45.676,2.096 c 0,5.439 -1.498,9.629 -4.492,12.572 -2.994,2.943 -7.203,4.413 -12.627,4.413 l -10.543,0 0,-32.588 11.278,0 c 5.23,0 9.27,1.337 12.115,4.012 2.845,2.675 4.269,6.538 4.269,11.591 z m -9.14,0.312 c 0,-2.987 -0.59,-5.201 -1.771,-6.642 -1.181,-1.441 -2.976,-2.162 -5.383,-2.162 l -2.563,0 0,18.255 1.961,0 c 2.675,0 4.637,-0.776 5.885,-2.329 1.248,-1.553 1.871,-3.927 1.871,-7.122 z m 25.371,-2.408 14.064,0 0,17.564 c -3.819,1.308 -8.018,1.961 -12.594,1.961 -5.022,0 -8.904,-1.456 -11.646,-4.368 -2.741,-2.912 -4.112,-7.066 -4.112,-12.46 0,-5.261 1.501,-9.354 4.503,-12.282 3.001,-2.927 7.207,-4.391 12.615,-4.391 2.051,0 3.986,0.193 5.807,0.58 1.821,0.387 3.406,0.877 4.759,1.471 l -2.786,6.91 c -2.348,-1.159 -4.926,-1.739 -7.734,-1.739 -2.571,0 -4.559,0.836 -5.963,2.508 -1.403,1.671 -2.105,4.061 -2.105,7.166 0,3.047 0.635,5.368 1.905,6.966 1.27,1.598 3.102,2.396 5.494,2.396 1.308,0 2.511,-0.126 3.611,-0.379 l 0,-5.104 -5.817,0 0,-6.799 z"
               id="path3372" />
          </g>
          <text
             xml:space="preserve"
             style="font-style:normal;font-variant:normal;font-weight:500;font-stretch:normal;font-size:45px;line-height:125%;font-family:Roboto;-inkscape-font-specification:'Roboto Medium';letter-spacing:0px;word-spacing:0px;fill:#666666;fill-opacity:1;stroke:none;stroke-width:1px;stroke-linecap:butt;stroke-linejoin:miter;stroke-opacity:1"
             x="397.76614"
             y="740.46667"
             id="text3431"
             sodipodi:linespacing="125%"><tspan
               sodipodi:role="line"
               id="tspan3433"
               x="397.76614"
               y="740.46667">Foumban</tspan></text>
        </g>
      </g>
    </g>
  </g>
</svg>
